<svg width="129" height="37" viewBox="0 0 129 37" fill="none" xmlns="http://www.w3.org/2000/svg">
<g id="logo svg 1" clip-path="url(#clip0_302_2490)">
<g id="Group">
<path id="Vector" d="M69.2411 25.1017L66.4847 20.8017H56.3411L53.5111 25.1017H51.3428L60.7513 10.8419H62.2582L71.3727 25.1017H69.2411ZM61.5599 13.0837L57.4069 19.2581H65.5291L61.5599 13.0837Z" fill="#1838AC"/>
<path id="Vector_2" d="M85.3751 23.7418C83.5008 24.6606 81.1119 25.1384 78.2452 25.1384H71.3726V10.8786H79.311C82.1042 10.8786 84.3461 11.3564 85.9999 12.3487C88.058 13.5615 89.0504 15.4726 89.0504 18.0085C89.0504 20.5444 87.8743 22.4923 85.3751 23.7418ZM84.9708 13.635C83.611 12.8265 81.7367 12.4222 79.311 12.4222H73.2469V23.5581H78.3555C80.8914 23.5581 82.876 23.1906 84.4196 22.4188C86.3307 21.4632 87.2862 19.9931 87.2862 18.0085C87.2495 16.0239 86.5144 14.5538 84.9708 13.635Z" fill="#1838AC"/>
<path id="Vector_3" d="M107.978 14.517C106.545 13.047 104.229 12.2752 101.105 12.2752C98.7164 12.2752 96.7318 12.7162 95.1147 13.5982C93.2771 14.6273 92.3583 16.0974 92.3583 18.0085C92.3583 19.9196 93.2403 21.3529 94.9677 22.382C96.5113 23.2641 98.4223 23.7051 100.774 23.7051C103.788 23.7051 106.104 22.9333 107.721 21.4264L109.448 22.1982C108.272 23.3008 106.949 24.0726 105.516 24.5871C104.192 25.0282 102.612 25.2487 100.774 25.2487C98.0548 25.2487 95.7762 24.7341 93.9386 23.7051C91.6232 22.4188 90.4839 20.5444 90.4839 18.082C90.4839 15.5094 91.66 13.5982 94.0489 12.2752C95.96 11.2093 98.2754 10.6948 101.069 10.6948C102.943 10.6948 104.56 10.9153 105.883 11.3564C107.316 11.8341 108.566 12.6059 109.669 13.7085L107.978 14.517Z" fill="#1838AC"/>
<path id="Vector_4" d="M119.812 25.1017H118.452L109.375 10.8419H111.433L119.151 22.8966L126.611 10.8419H128.706L119.812 25.1017Z" fill="#1838AC"/>
</g>
<g id="Group_2">
<g id="Group_3">
<path id="Vector_5" d="M11.3563 18.1922C11.3563 10.217 17.8246 3.74866 25.7998 3.74866C27.5639 3.74866 29.2545 4.07943 30.8349 4.66747C27.6742 2.53584 23.8887 1.24951 19.8092 1.24951C8.96736 1.24951 0.183594 10.0333 0.183594 20.8751C0.183594 27.1598 3.12376 32.7093 7.71778 36.311L15.6195 28.4093C12.9733 25.7999 11.3563 22.1982 11.3563 18.1922Z" fill="url(#paint0_linear_302_2490)"/>
<path id="Vector_6" d="M43.8819 0.110229L35.9802 8.01194C38.5896 10.6213 40.2067 14.2231 40.2067 18.229C40.2067 26.2043 33.7383 32.6726 25.7631 32.6726C23.9989 32.6726 22.3084 32.3419 20.728 31.7538C23.8887 33.8855 27.6742 35.1718 31.7537 35.1718C42.5955 35.1718 51.3793 26.388 51.3793 15.5461C51.416 9.26151 48.4391 3.67519 43.8819 0.110229Z" fill="url(#paint1_linear_302_2490)"/>
</g>
<g id="Group_4">
<g id="Group_5">
<path id="Vector_7" d="M29.5486 15.1786L21.5366 8.74695L21.7571 8.45294L29.7691 14.9213L29.5486 15.1786Z" fill="url(#paint2_linear_302_2490)"/>
<path id="Vector_8" d="M21.7571 15.1786L21.5366 14.9213L29.5486 8.45294L29.7691 8.74695L21.7571 15.1786Z" fill="url(#paint3_linear_302_2490)"/>
<path id="Vector_9" d="M29.5486 21.4999L21.5366 15.0316L21.7571 14.7375L29.7691 21.2059L29.5486 21.4999Z" fill="url(#paint4_linear_302_2490)"/>
<path id="Vector_10" d="M21.7571 21.4999L21.5366 21.2059L29.5486 14.7375L29.7691 15.0316L21.7571 21.4999Z" fill="url(#paint5_linear_302_2490)"/>
<path id="Vector_11" d="M29.5486 27.7846L21.5366 21.353L21.7571 21.059L29.7691 27.4906L29.5486 27.7846Z" fill="url(#paint6_linear_302_2490)"/>
<path id="Vector_12" d="M21.7571 27.7846L21.5366 27.4906L29.5486 21.059L29.7691 21.353L21.7571 27.7846Z" fill="url(#paint7_linear_302_2490)"/>
<path id="Vector_13" d="M14.4439 18.3025L14.2969 17.9718L21.5738 14.8846L21.7208 15.2153L14.4439 18.3025Z" fill="url(#paint8_linear_302_2490)"/>
<path id="Vector_14" d="M21.5738 21.3529L14.2969 18.3025L14.4439 17.9717L21.7208 21.0222L21.5738 21.3529Z" fill="url(#paint9_linear_302_2490)"/>
<path id="Vector_15" d="M21.5001 27.7478L14.2231 18.229L14.5172 18.0085L21.7941 27.5273L21.5001 27.7478Z" fill="url(#paint10_linear_302_2490)"/>
<path id="Vector_16" d="M14.5172 18.229L14.2231 18.0085L21.5001 8.48969L21.7941 8.7102L14.5172 18.229Z" fill="url(#paint11_linear_302_2490)"/>
<path id="Vector_17" d="M36.8624 18.3025L29.5854 15.2153L29.7325 14.8846L37.0094 17.9718L36.8624 18.3025Z" fill="url(#paint12_linear_302_2490)"/>
<path id="Vector_18" d="M29.7325 21.3529L29.5854 21.0222L36.8624 17.9717L37.0094 18.3025L29.7325 21.3529Z" fill="url(#paint13_linear_302_2490)"/>
<path id="Vector_19" d="M29.8062 27.7478L29.5122 27.5273L36.7891 18.0085L37.0832 18.229L29.8062 27.7478Z" fill="url(#paint14_linear_302_2490)"/>
<path id="Vector_20" d="M36.7891 18.229L29.5122 8.7102L29.8062 8.48969L37.0832 18.0085L36.7891 18.229Z" fill="url(#paint15_linear_302_2490)"/>
</g>
<g id="Group_6">
<path id="Vector_21" d="M21.647 28.5932C22.1747 28.5932 22.6025 28.1654 22.6025 27.6377C22.6025 27.11 22.1747 26.6821 21.647 26.6821C21.1192 26.6821 20.6914 27.11 20.6914 27.6377C20.6914 28.1654 21.1192 28.5932 21.647 28.5932Z" fill="url(#paint16_linear_302_2490)"/>
<path id="Vector_22" d="M21.647 22.3086C22.1747 22.3086 22.6025 21.8808 22.6025 21.353C22.6025 20.8253 22.1747 20.3975 21.647 20.3975C21.1192 20.3975 20.6914 20.8253 20.6914 21.353C20.6914 21.8808 21.1192 22.3086 21.647 22.3086Z" fill="url(#paint17_linear_302_2490)"/>
<path id="Vector_23" d="M21.647 15.9872C22.1747 15.9872 22.6025 15.5594 22.6025 15.0317C22.6025 14.5039 22.1747 14.0761 21.647 14.0761C21.1192 14.0761 20.6914 14.5039 20.6914 15.0317C20.6914 15.5594 21.1192 15.9872 21.647 15.9872Z" fill="url(#paint18_linear_302_2490)"/>
<path id="Vector_24" d="M21.647 9.70261C22.1747 9.70261 22.6025 9.27479 22.6025 8.74705C22.6025 8.21931 22.1747 7.7915 21.647 7.7915C21.1192 7.7915 20.6914 8.21931 20.6914 8.74705C20.6914 9.27479 21.1192 9.70261 21.647 9.70261Z" fill="url(#paint19_linear_302_2490)"/>
<path id="Vector_25" d="M14.6274 19.0744C15.1552 19.0744 15.583 18.6466 15.583 18.1188C15.583 17.5911 15.1552 17.1633 14.6274 17.1633C14.0997 17.1633 13.6719 17.5911 13.6719 18.1188C13.6719 18.6466 14.0997 19.0744 14.6274 19.0744Z" fill="url(#paint20_linear_302_2490)"/>
<path id="Vector_26" d="M29.6592 28.5932C30.1869 28.5932 30.6147 28.1654 30.6147 27.6377C30.6147 27.11 30.1869 26.6821 29.6592 26.6821C29.1314 26.6821 28.7036 27.11 28.7036 27.6377C28.7036 28.1654 29.1314 28.5932 29.6592 28.5932Z" fill="url(#paint21_linear_302_2490)"/>
<path id="Vector_27" d="M29.6592 22.3086C30.1869 22.3086 30.6147 21.8808 30.6147 21.353C30.6147 20.8253 30.1869 20.3975 29.6592 20.3975C29.1314 20.3975 28.7036 20.8253 28.7036 21.353C28.7036 21.8808 29.1314 22.3086 29.6592 22.3086Z" fill="url(#paint22_linear_302_2490)"/>
<path id="Vector_28" d="M29.6592 15.9872C30.1869 15.9872 30.6147 15.5594 30.6147 15.0317C30.6147 14.5039 30.1869 14.0761 29.6592 14.0761C29.1314 14.0761 28.7036 14.5039 28.7036 15.0317C28.7036 15.5594 29.1314 15.9872 29.6592 15.9872Z" fill="url(#paint23_linear_302_2490)"/>
<path id="Vector_29" d="M29.6592 9.70261C30.1869 9.70261 30.6147 9.27479 30.6147 8.74705C30.6147 8.21931 30.1869 7.7915 29.6592 7.7915C29.1314 7.7915 28.7036 8.21931 28.7036 8.74705C28.7036 9.27479 29.1314 9.70261 29.6592 9.70261Z" fill="url(#paint24_linear_302_2490)"/>
<path id="Vector_30" d="M36.936 19.0744C37.4638 19.0744 37.8916 18.6466 37.8916 18.1188C37.8916 17.5911 37.4638 17.1633 36.936 17.1633C36.4083 17.1633 35.9805 17.5911 35.9805 18.1188C35.9805 18.6466 36.4083 19.0744 36.936 19.0744Z" fill="url(#paint25_linear_302_2490)"/>
</g>
</g>
</g>
</g>
<defs>
<linearGradient id="paint0_linear_302_2490" x1="5.51266" y1="18.7759" x2="47.0491" y2="18.7759" gradientUnits="userSpaceOnUse">
<stop stop-color="#3359E5"/>
<stop offset="1" stop-color="#1838AC"/>
</linearGradient>
<linearGradient id="paint1_linear_302_2490" x1="5.51265" y1="17.6213" x2="47.0491" y2="17.6213" gradientUnits="userSpaceOnUse">
<stop stop-color="#3359E5"/>
<stop offset="1" stop-color="#1838AC"/>
</linearGradient>
<linearGradient id="paint2_linear_302_2490" x1="5.51267" y1="11.8256" x2="47.0491" y2="11.8256" gradientUnits="userSpaceOnUse">
<stop stop-color="#3359E5"/>
<stop offset="1" stop-color="#1838AC"/>
</linearGradient>
<linearGradient id="paint3_linear_302_2490" x1="5.51267" y1="11.8256" x2="47.0491" y2="11.8256" gradientUnits="userSpaceOnUse">
<stop stop-color="#3359E5"/>
<stop offset="1" stop-color="#1838AC"/>
</linearGradient>
<linearGradient id="paint4_linear_302_2490" x1="5.51267" y1="18.1232" x2="47.0491" y2="18.1232" gradientUnits="userSpaceOnUse">
<stop stop-color="#3359E5"/>
<stop offset="1" stop-color="#1838AC"/>
</linearGradient>
<linearGradient id="paint5_linear_302_2490" x1="5.51267" y1="18.1232" x2="47.0491" y2="18.1232" gradientUnits="userSpaceOnUse">
<stop stop-color="#3359E5"/>
<stop offset="1" stop-color="#1838AC"/>
</linearGradient>
<linearGradient id="paint6_linear_302_2490" x1="5.51267" y1="24.421" x2="47.0491" y2="24.421" gradientUnits="userSpaceOnUse">
<stop stop-color="#3359E5"/>
<stop offset="1" stop-color="#1838AC"/>
</linearGradient>
<linearGradient id="paint7_linear_302_2490" x1="5.51267" y1="24.421" x2="47.0491" y2="24.421" gradientUnits="userSpaceOnUse">
<stop stop-color="#3359E5"/>
<stop offset="1" stop-color="#1838AC"/>
</linearGradient>
<linearGradient id="paint8_linear_302_2490" x1="5.51314" y1="16.5865" x2="47.0495" y2="16.5865" gradientUnits="userSpaceOnUse">
<stop stop-color="#3359E5"/>
<stop offset="1" stop-color="#1838AC"/>
</linearGradient>
<linearGradient id="paint9_linear_302_2490" x1="5.51314" y1="19.6599" x2="47.0495" y2="19.6599" gradientUnits="userSpaceOnUse">
<stop stop-color="#3359E5"/>
<stop offset="1" stop-color="#1838AC"/>
</linearGradient>
<linearGradient id="paint10_linear_302_2490" x1="5.5129" y1="22.8841" x2="47.0493" y2="22.8841" gradientUnits="userSpaceOnUse">
<stop stop-color="#3359E5"/>
<stop offset="1" stop-color="#1838AC"/>
</linearGradient>
<linearGradient id="paint11_linear_302_2490" x1="5.5129" y1="13.3622" x2="47.0493" y2="13.3622" gradientUnits="userSpaceOnUse">
<stop stop-color="#3359E5"/>
<stop offset="1" stop-color="#1838AC"/>
</linearGradient>
<linearGradient id="paint12_linear_302_2490" x1="5.51279" y1="16.5865" x2="47.0492" y2="16.5865" gradientUnits="userSpaceOnUse">
<stop stop-color="#3359E5"/>
<stop offset="1" stop-color="#1838AC"/>
</linearGradient>
<linearGradient id="paint13_linear_302_2490" x1="5.51279" y1="19.6599" x2="47.0492" y2="19.6599" gradientUnits="userSpaceOnUse">
<stop stop-color="#3359E5"/>
<stop offset="1" stop-color="#1838AC"/>
</linearGradient>
<linearGradient id="paint14_linear_302_2490" x1="5.51302" y1="22.8841" x2="47.0495" y2="22.8841" gradientUnits="userSpaceOnUse">
<stop stop-color="#3359E5"/>
<stop offset="1" stop-color="#1838AC"/>
</linearGradient>
<linearGradient id="paint15_linear_302_2490" x1="5.51302" y1="13.3622" x2="47.0495" y2="13.3622" gradientUnits="userSpaceOnUse">
<stop stop-color="#3359E5"/>
<stop offset="1" stop-color="#1838AC"/>
</linearGradient>
<linearGradient id="paint16_linear_302_2490" x1="5.51274" y1="27.6453" x2="47.0493" y2="27.6453" gradientUnits="userSpaceOnUse">
<stop stop-color="#3359E5"/>
<stop offset="1" stop-color="#1838AC"/>
</linearGradient>
<linearGradient id="paint17_linear_302_2490" x1="5.51274" y1="21.3475" x2="47.0493" y2="21.3475" gradientUnits="userSpaceOnUse">
<stop stop-color="#3359E5"/>
<stop offset="1" stop-color="#1838AC"/>
</linearGradient>
<linearGradient id="paint18_linear_302_2490" x1="5.51274" y1="15.0499" x2="47.0493" y2="15.0499" gradientUnits="userSpaceOnUse">
<stop stop-color="#3359E5"/>
<stop offset="1" stop-color="#1838AC"/>
</linearGradient>
<linearGradient id="paint19_linear_302_2490" x1="5.51274" y1="8.75216" x2="47.0493" y2="8.75216" gradientUnits="userSpaceOnUse">
<stop stop-color="#3359E5"/>
<stop offset="1" stop-color="#1838AC"/>
</linearGradient>
<linearGradient id="paint20_linear_302_2490" x1="5.51288" y1="18.1232" x2="47.0494" y2="18.1232" gradientUnits="userSpaceOnUse">
<stop stop-color="#3359E5"/>
<stop offset="1" stop-color="#1838AC"/>
</linearGradient>
<linearGradient id="paint21_linear_302_2490" x1="5.51296" y1="27.6453" x2="47.0495" y2="27.6453" gradientUnits="userSpaceOnUse">
<stop stop-color="#3359E5"/>
<stop offset="1" stop-color="#1838AC"/>
</linearGradient>
<linearGradient id="paint22_linear_302_2490" x1="5.51296" y1="21.3475" x2="47.0495" y2="21.3475" gradientUnits="userSpaceOnUse">
<stop stop-color="#3359E5"/>
<stop offset="1" stop-color="#1838AC"/>
</linearGradient>
<linearGradient id="paint23_linear_302_2490" x1="5.51296" y1="15.0499" x2="47.0495" y2="15.0499" gradientUnits="userSpaceOnUse">
<stop stop-color="#3359E5"/>
<stop offset="1" stop-color="#1838AC"/>
</linearGradient>
<linearGradient id="paint24_linear_302_2490" x1="5.51296" y1="8.75216" x2="47.0495" y2="8.75216" gradientUnits="userSpaceOnUse">
<stop stop-color="#3359E5"/>
<stop offset="1" stop-color="#1838AC"/>
</linearGradient>
<linearGradient id="paint25_linear_302_2490" x1="5.51323" y1="18.1232" x2="47.0493" y2="18.1232" gradientUnits="userSpaceOnUse">
<stop stop-color="#3359E5"/>
<stop offset="1" stop-color="#1838AC"/>
</linearGradient>
<clipPath id="clip0_302_2490">
<rect width="129" height="36.3846" fill="white"/>
</clipPath>
</defs>
</svg>
