<svg width="37" height="38" viewBox="0 0 37 38" fill="none" xmlns="http://www.w3.org/2000/svg">
<path d="M18.6395 20.0677C19.1148 20.0677 19.5001 19.683 19.5001 19.2084C19.5001 18.7338 19.1148 18.349 18.6395 18.349C18.1641 18.349 17.7788 18.7338 17.7788 19.2084C17.7788 19.683 18.1641 20.0677 18.6395 20.0677Z" fill="#7D8798" stroke="#7D8798" stroke-width="2" stroke-linecap="round" stroke-linejoin="round"/>
<path d="M18.6395 14.0521C19.1148 14.0521 19.5001 13.6674 19.5001 13.1927C19.5001 12.7181 19.1148 12.3334 18.6395 12.3334C18.1641 12.3334 17.7788 12.7181 17.7788 13.1927C17.7788 13.6674 18.1641 14.0521 18.6395 14.0521Z" fill="#7D8798" stroke="#7D8798" stroke-width="2" stroke-linecap="round" stroke-linejoin="round"/>
<path d="M18.6395 26.0834C19.1148 26.0834 19.5001 25.6986 19.5001 25.224C19.5001 24.7494 19.1148 24.3646 18.6395 24.3646C18.1641 24.3646 17.7788 24.7494 17.7788 25.224C17.7788 25.6986 18.1641 26.0834 18.6395 26.0834Z" fill="#7D8798" stroke="#7D8798" stroke-width="2" stroke-linecap="round" stroke-linejoin="round"/>
</svg>
